<svg xmlns="http://www.w3.org/2000/svg" xmlns:xlink="http://www.w3.org/1999/xlink" contentStyleType="text/css" height="348px" preserveAspectRatio="none" style="width:401px;height:348px;background:#FFFFFF;" version="1.1" viewBox="0 0 401 348" width="401px" zoomAndPan="magnify"><defs/><g><!--class Empresa--><g id="elem_Empresa"><rect codeLine="4" fill="#F1F1F1" height="26.2969" id="Empresa" rx="2.5" ry="2.5" style="stroke:#181818;stroke-width:0.5;" width="67.6123" x="149.5" y="7"/><text fill="#000000" font-family="sans-serif" font-size="14" lengthAdjust="spacing" textLength="61.6123" x="152.5" y="24.9951">Empresa</text></g><!--class Servicio--><g id="elem_Servicio"><rect codeLine="7" fill="#F1F1F1" height="26.2969" id="Servicio" rx="2.5" ry="2.5" style="stroke:#181818;stroke-width:0.5;" width="61.583" x="152.5" y="110"/><text fill="#000000" font-family="sans-serif" font-size="14" lengthAdjust="spacing" textLength="55.583" x="155.5" y="127.9951">Servicio</text></g><!--class Cliente--><g id="elem_Cliente"><rect codeLine="10" fill="#F1F1F1" height="26.2969" id="Cliente" rx="2.5" ry="2.5" style="stroke:#181818;stroke-width:0.5;" width="55.1436" x="156" y="213"/><text fill="#000000" font-family="sans-serif" font-size="14" lengthAdjust="spacing" textLength="49.1436" x="159" y="230.9951">Cliente</text></g><!--class Empleado--><g id="elem_Empleado"><rect codeLine="13" fill="#F1F1F1" height="26.2969" id="Empleado" rx="2.5" ry="2.5" style="stroke:#181818;stroke-width:0.5;" width="75.9043" x="286.5" y="110"/><text fill="#000000" font-family="sans-serif" font-size="14" lengthAdjust="spacing" textLength="69.9043" x="289.5" y="127.9951">Empleado</text></g><!--class Proyecto--><g id="elem_Proyecto"><rect codeLine="16" fill="#F1F1F1" height="26.2969" id="Proyecto" rx="2.5" ry="2.5" style="stroke:#181818;stroke-width:0.5;" width="67.4141" x="287" y="213"/><text fill="#000000" font-family="sans-serif" font-size="14" lengthAdjust="spacing" textLength="61.4141" x="290" y="230.9951">Proyecto</text></g><!--class Ingresos--><g id="elem_Ingresos"><rect codeLine="19" fill="#F1F1F1" height="26.2969" id="Ingresos" rx="2.5" ry="2.5" style="stroke:#181818;stroke-width:0.5;" width="65.4111" x="8" y="316"/><text fill="#000000" font-family="sans-serif" font-size="14" lengthAdjust="spacing" textLength="59.4111" x="11" y="333.9951">Ingresos</text></g><!--class Contrato--><g id="elem_Contrato"><rect codeLine="22" fill="#F1F1F1" height="26.2969" id="Contrato" rx="2.5" ry="2.5" style="stroke:#181818;stroke-width:0.5;" width="67.0928" x="7" y="213"/><text fill="#000000" font-family="sans-serif" font-size="14" lengthAdjust="spacing" textLength="61.0928" x="10" y="230.9951">Contrato</text></g><!--link Empresa to Servicio--><g id="link_Empresa_Servicio"><path codeLine="26" d="M183.5,33.38 C183.5,52.87 183.5,84.47 183.5,103.83 " fill="none" id="Empresa-to-Servicio" style="stroke:#181818;stroke-width:1;"/><polygon fill="#181818" points="183.5,109.83,187.5,100.83,183.5,104.83,179.5,100.83,183.5,109.83" style="stroke:#181818;stroke-width:1;"/><text fill="#000000" font-family="sans-serif" font-size="13" lengthAdjust="spacing" textLength="43.2974" x="184.5" y="76.0669">Ofrece</text><text fill="#000000" font-family="sans-serif" font-size="13" lengthAdjust="spacing" textLength="8.271" x="174.1006" y="53.3761">1</text><text fill="#000000" font-family="sans-serif" font-size="13" lengthAdjust="spacing" textLength="6.5" x="176.5311" y="98.9852">*</text></g><!--reverse link Servicio to Cliente--><g id="link_Servicio_Cliente"><path codeLine="27" d="M181.729,142.1765 C180.669,154.1065 179.92,166.81 180.5,183 C180.86,193.08 181.7,204.5 182.4,212.88 " fill="none" id="Servicio-backto-Cliente" style="stroke:#181818;stroke-width:1;"/><polygon fill="#181818" points="182.26,136.2,177.4792,144.8107,181.8175,141.1804,185.4478,145.5187,182.26,136.2" style="stroke:#181818;stroke-width:1;"/><text fill="#000000" font-family="sans-serif" font-size="13" lengthAdjust="spacing" textLength="47.252" x="181.5" y="179.0669">Solicita</text><text fill="#000000" font-family="sans-serif" font-size="13" lengthAdjust="spacing" textLength="6.5" x="174.771" y="156.3852">*</text><text fill="#000000" font-family="sans-serif" font-size="13" lengthAdjust="spacing" textLength="8.271" x="172.4799" y="202.0542">1</text></g><!--link Empleado to Proyecto--><g id="link_Empleado_Proyecto"><path codeLine="28" d="M324.49,136.21 C324.43,148.15 324.21,166.83 323.5,183 C323.05,193.08 322.7053,198.5197 322.0253,206.8997 " fill="none" id="Empleado-to-Proyecto" style="stroke:#181818;stroke-width:1;"/><polygon fill="#181818" points="321.54,212.88,326.2548,204.233,321.9444,207.8964,318.281,203.586,321.54,212.88" style="stroke:#181818;stroke-width:1;"/><text fill="#000000" font-family="sans-serif" font-size="13" lengthAdjust="spacing" textLength="69.418" x="324.5" y="179.0669">Trabaja en</text><text fill="#000000" font-family="sans-serif" font-size="13" lengthAdjust="spacing" textLength="6.5" x="317.4221" y="156.3992">*</text><text fill="#000000" font-family="sans-serif" font-size="13" lengthAdjust="spacing" textLength="6.5" x="314.8091" y="202.0542">*</text></g><!--link Servicio to Proyecto--><g id="link_Servicio_Proyecto"><path codeLine="29" d="M200.03,136.18 C226.36,155.6 272.7205,189.7697 299.0905,209.2097 " fill="none" id="Servicio-to-Proyecto" style="stroke:#181818;stroke-width:1;"/><polygon fill="#181818" points="303.92,212.77,299.0493,204.2099,299.8954,209.8031,294.3022,210.6492,303.92,212.77" style="stroke:#181818;stroke-width:1;"/><text fill="#000000" font-family="sans-serif" font-size="13" lengthAdjust="spacing" textLength="48.7183" x="260.5" y="179.0669">Resulta</text><text fill="#000000" font-family="sans-serif" font-size="13" lengthAdjust="spacing" textLength="8.271" x="197.0991" y="156.3573">1</text><text fill="#000000" font-family="sans-serif" font-size="13" lengthAdjust="spacing" textLength="6.5" x="290.4715" y="201.9023">*</text></g><!--reverse link Empresa to Empleado--><g id="link_Empresa_Empleado"><path codeLine="30" d="M205.387,36.6749 C232.487,56.0949 280.29,90.33 307.43,109.77 " fill="none" id="Empresa-backto-Empleado" style="stroke:#181818;stroke-width:1;"/><polygon fill="#181818" points="200.51,33.18,205.4956,41.6737,204.5742,36.0924,210.1555,35.171,200.51,33.18" style="stroke:#181818;stroke-width:1;"/><text fill="#000000" font-family="sans-serif" font-size="13" lengthAdjust="spacing" textLength="77.7588" x="262.5" y="76.0669">Pertenece a</text><text fill="#000000" font-family="sans-serif" font-size="13" lengthAdjust="spacing" textLength="8.271" x="197.7624" y="53.3573">1</text><text fill="#000000" font-family="sans-serif" font-size="13" lengthAdjust="spacing" textLength="6.5" x="293.8919" y="98.9023">*</text></g><!--link Contrato to Ingresos--><g id="link_Contrato_Ingresos"><path codeLine="31" d="M40.5,239.38 C40.5,258.87 40.5,290.47 40.5,309.83 " fill="none" id="Contrato-to-Ingresos" style="stroke:#181818;stroke-width:1;"/><polygon fill="#181818" points="40.5,315.83,44.5,306.83,40.5,310.83,36.5,306.83,40.5,315.83" style="stroke:#181818;stroke-width:1;"/><text fill="#000000" font-family="sans-serif" font-size="13" lengthAdjust="spacing" textLength="47.6201" x="41.5" y="282.0669">Genera</text><text fill="#000000" font-family="sans-serif" font-size="13" lengthAdjust="spacing" textLength="8.271" x="31.009" y="259.3761">1</text><text fill="#000000" font-family="sans-serif" font-size="13" lengthAdjust="spacing" textLength="8.271" x="30.9483" y="304.9852">1</text></g><!--link Servicio to Contrato--><g id="link_Servicio_Contrato"><path codeLine="32" d="M152.19,136.15 C135.2,143.49 114.3,153.79 97.5,166 C78.61,179.73 64.3377,195.443 53.7777,208.303 " fill="none" id="Servicio-to-Contrato" style="stroke:#181818;stroke-width:1;"/><polygon fill="#181818" points="49.97,212.94,58.7728,208.523,53.1431,209.0758,52.5902,203.4461,49.97,212.94" style="stroke:#181818;stroke-width:1;"/><text fill="#000000" font-family="sans-serif" font-size="13" lengthAdjust="spacing" textLength="72.0522" x="98.5" y="179.0669">Condiciona</text><text fill="#000000" font-family="sans-serif" font-size="13" lengthAdjust="spacing" textLength="6.5" x="137.9387" y="134.5741">*</text><text fill="#000000" font-family="sans-serif" font-size="13" lengthAdjust="spacing" textLength="8.271" x="55.3089" y="201.8791">1</text></g><!--link Empresa to Contrato--><g id="link_Empresa_Contrato"><path codeLine="33" d="M169.1,33.08 C150.56,49.19 118.15,79.26 96.5,110 C72.21,144.5 55.2526,185.518 47.0226,207.278 " fill="none" id="Empresa-to-Contrato" style="stroke:#181818;stroke-width:1;"/><polygon fill="#181818" points="44.9,212.89,51.8252,205.887,46.6688,208.2133,44.3425,203.0569,44.9,212.89" style="stroke:#181818;stroke-width:1;"/><text fill="#000000" font-family="sans-serif" font-size="13" lengthAdjust="spacing" textLength="37.5845" x="97.5" y="127.5669">Emite</text><text fill="#000000" font-family="sans-serif" font-size="13" lengthAdjust="spacing" textLength="8.271" x="153.6459" y="53.6023">1</text><text fill="#000000" font-family="sans-serif" font-size="13" lengthAdjust="spacing" textLength="6.5" x="39.5314" y="201.8094">*</text></g><!--SRC=[LP2zRa8n38LtFuML4Oc1DKCNX52dej8-WCara2e_o4cHKDLtRwAItDmjElbyph6lTc9aVyiFzEnFB0ckLJ9MZ6C0uoWbtFcRS2ByWTyc7LdkrjWuQbjdEMGUfJBfcAO5Tf3uO9CNsckub8IO5dOnPA76GIk1QgFMwnUrKZYtqFXs5ZOChKE5Fl-f0Jf6LrwPeFSgmDEirzBu8NIYBq8Eq8Vdr05yv_JjCk7Ih-PkLB-QnWDBvb3g8K7VgZaMic-lSLyueI5srQ0-gEjpgh-1-bNcUWEtypRp7m00]--></g></svg>