<svg xmlns="http://www.w3.org/2000/svg" xmlns:xlink="http://www.w3.org/1999/xlink" contentStyleType="text/css" height="536px" preserveAspectRatio="none" style="width:995px;height:536px;background:#FFFFFF;" version="1.1" viewBox="0 0 995 536" width="995px" zoomAndPan="magnify"><defs/><g><g id="elem_netBees"><rect fill="#F1F1F1" height="77.1875" style="stroke:#181818;stroke-width:0.5;" width="276.2979" x="221.96" y="7"/><text fill="#000000" font-family="sans-serif" font-size="14" lengthAdjust="spacing" textLength="124.7627" x="297.7276" y="21.9951">Empresa NetBees</text><line style="stroke:#181818;stroke-width:0.5;" x1="222.96" x2="497.2579" y1="27.2969" y2="27.2969"/><text fill="#000000" font-family="sans-serif" font-size="14" lengthAdjust="spacing" textLength="264.2979" x="227.96" y="44.292">nombre = "NetBees Business Center"</text><text fill="#000000" font-family="sans-serif" font-size="14" lengthAdjust="spacing" textLength="168.8682" x="227.96" y="60.5889">ubicacion = "Cantabria"</text><text fill="#000000" font-family="sans-serif" font-size="14" lengthAdjust="spacing" textLength="259.5605" x="227.96" y="76.8857">sector = "Ecosistema de Innovaci&#243;n"</text></g><g id="elem_servRS"><rect fill="#F1F1F1" height="93.4844" style="stroke:#181818;stroke-width:0.5;" width="255.6123" x="377.96" y="161"/><text fill="#000000" font-family="sans-serif" font-size="14" lengthAdjust="spacing" textLength="160.583" x="425.4746" y="175.9951">Servicio RedesSociales</text><line style="stroke:#181818;stroke-width:0.5;" x1="378.96" x2="632.5723" y1="181.2969" y2="181.2969"/><text fill="#000000" font-family="sans-serif" font-size="14" lengthAdjust="spacing" textLength="192.8418" x="383.96" y="198.292">nombre = "Redes Sociales"</text><text fill="#000000" font-family="sans-serif" font-size="14" lengthAdjust="spacing" textLength="162.8867" x="383.96" y="214.5889">precioPorUnidad = 350</text><text fill="#000000" font-family="sans-serif" font-size="14" lengthAdjust="spacing" textLength="213.7734" x="383.96" y="230.8857">ventasAnualesEstimadas = 21</text><text fill="#000000" font-family="sans-serif" font-size="14" lengthAdjust="spacing" textLength="243.6123" x="383.96" y="247.1826">ingresosAnualesEstimados = 7500</text></g><g id="elem_servFV"><rect fill="#F1F1F1" height="93.4844" style="stroke:#181818;stroke-width:0.5;" width="255.6123" x="86.96" y="161"/><text fill="#000000" font-family="sans-serif" font-size="14" lengthAdjust="spacing" textLength="155.6338" x="136.9493" y="175.9951">Servicio FunnelVentas</text><line style="stroke:#181818;stroke-width:0.5;" x1="87.96" x2="341.5723" y1="181.2969" y2="181.2969"/><text fill="#000000" font-family="sans-serif" font-size="14" lengthAdjust="spacing" textLength="209.8428" x="92.96" y="198.292">nombre = "Funnel de Ventas"</text><text fill="#000000" font-family="sans-serif" font-size="14" lengthAdjust="spacing" textLength="162.8867" x="92.96" y="214.5889">precioPorUnidad = 950</text><text fill="#000000" font-family="sans-serif" font-size="14" lengthAdjust="spacing" textLength="204.8662" x="92.96" y="230.8857">ventasAnualesEstimadas = 5</text><text fill="#000000" font-family="sans-serif" font-size="14" lengthAdjust="spacing" textLength="243.6123" x="92.96" y="247.1826">ingresosAnualesEstimados = 5000</text></g><g id="elem_cliMkt"><rect fill="#F1F1F1" height="77.1875" style="stroke:#181818;stroke-width:0.5;" width="209.0527" x="360.46" y="331"/><text fill="#000000" font-family="sans-serif" font-size="14" lengthAdjust="spacing" textLength="156.8506" x="386.5611" y="345.9951">Cliente MarketingCorp</text><line style="stroke:#181818;stroke-width:0.5;" x1="361.46" x2="568.5127" y1="351.2969" y2="351.2969"/><text fill="#000000" font-family="sans-serif" font-size="14" lengthAdjust="spacing" textLength="191.0986" x="366.46" y="368.292">nombre = "MarketingCorp"</text><text fill="#000000" font-family="sans-serif" font-size="14" lengthAdjust="spacing" textLength="197.0527" x="366.46" y="384.5889">sector = "Marketing Digital"</text><text fill="#000000" font-family="sans-serif" font-size="14" lengthAdjust="spacing" textLength="170.6182" x="366.46" y="400.8857">ubicacion = "Barcelona"</text></g><g id="elem_empMaura"><rect fill="#F1F1F1" height="60.8906" style="stroke:#181818;stroke-width:0.5;" width="307.5654" x="668.96" y="177"/><text fill="#000000" font-family="sans-serif" font-size="14" lengthAdjust="spacing" textLength="69.918" x="787.7837" y="191.9951">Empleada</text><line style="stroke:#181818;stroke-width:0.5;" x1="669.96" x2="975.5254" y1="197.2969" y2="197.2969"/><text fill="#000000" font-family="sans-serif" font-size="14" lengthAdjust="spacing" textLength="196.7861" x="674.96" y="214.292">nombre = "Maura Mart&#237;nez"</text><text fill="#000000" font-family="sans-serif" font-size="14" lengthAdjust="spacing" textLength="295.5654" x="674.96" y="230.5889">puesto = "Especialista en Redes Sociales"</text></g><g id="elem_proyExpOnline"><rect fill="#F1F1F1" height="60.8906" style="stroke:#181818;stroke-width:0.5;" width="366.6963" x="621.46" y="339"/><text fill="#000000" font-family="sans-serif" font-size="14" lengthAdjust="spacing" textLength="183.1143" x="713.251" y="353.9951">Proyecto Expansi&#243;nOnline</text><line style="stroke:#181818;stroke-width:0.5;" x1="622.46" x2="987.1563" y1="359.2969" y2="359.2969"/><text fill="#000000" font-family="sans-serif" font-size="14" lengthAdjust="spacing" textLength="209.542" x="627.46" y="376.292">nombre = "Expansi&#243;n Online"</text><text fill="#000000" font-family="sans-serif" font-size="14" lengthAdjust="spacing" textLength="354.6963" x="627.46" y="392.5889">descripcion = "Incrementar la presencia en redes"</text></g><g id="elem_contratoM01"><rect fill="#F1F1F1" height="60.8906" style="stroke:#181818;stroke-width:0.5;" width="202.6064" x="87.46" y="339"/><text fill="#000000" font-family="sans-serif" font-size="14" lengthAdjust="spacing" textLength="153.6309" x="111.9478" y="353.9951">Contrato Marketing01</text><line style="stroke:#181818;stroke-width:0.5;" x1="88.46" x2="289.0664" y1="359.2969" y2="359.2969"/><text fill="#000000" font-family="sans-serif" font-size="14" lengthAdjust="spacing" textLength="190.6064" x="93.46" y="376.292">fechaInicio = "2025-03-01"</text><text fill="#000000" font-family="sans-serif" font-size="14" lengthAdjust="spacing" textLength="174.3779" x="93.46" y="392.5889">fechaFin = "2025-09-01"</text></g><g id="elem_ingrM01"><rect fill="#F1F1F1" height="44.5938" style="stroke:#181818;stroke-width:0.5;" width="165.9492" x="105.96" y="485"/><text fill="#000000" font-family="sans-serif" font-size="14" lengthAdjust="spacing" textLength="151.9492" x="112.96" y="499.9951">Ingresos Marketing01</text><line style="stroke:#181818;stroke-width:0.5;" x1="106.96" x2="270.9092" y1="505.2969" y2="505.2969"/><text fill="#000000" font-family="sans-serif" font-size="14" lengthAdjust="spacing" textLength="101.3906" x="111.96" y="522.292">monto = 1300</text></g><!--link netBees to servRS--><g id="link_netBees_servRS"><path codeLine="52" d="M394.19,84.01 C415.18,107.01 438.1457,132.1779 460.3557,156.5179 " fill="none" id="netBees-to-servRS" style="stroke:#181818;stroke-width:1;"/><polygon fill="#181818" points="464.4,160.95,461.2883,151.6056,461.0298,157.2566,455.3788,156.998,464.4,160.95" style="stroke:#181818;stroke-width:1;"/><text fill="#000000" font-family="sans-serif" font-size="13" lengthAdjust="spacing" textLength="43.2974" x="433.96" y="127.0669">Ofrece</text></g><!--link netBees to servFV--><g id="link_netBees_servFV"><path codeLine="53" d="M325.97,84.01 C305.12,107.01 282.3293,132.1642 260.2693,156.5042 " fill="none" id="netBees-to-servFV" style="stroke:#181818;stroke-width:1;"/><polygon fill="#181818" points="256.24,160.95,265.2478,156.9676,259.5978,157.2452,259.3201,151.5952,256.24,160.95" style="stroke:#181818;stroke-width:1;"/><text fill="#000000" font-family="sans-serif" font-size="13" lengthAdjust="spacing" textLength="43.2974" x="297.96" y="127.0669">Ofrece</text></g><!--reverse link servRS to cliMkt--><g id="link_servRS_cliMkt"><path codeLine="55" d="M492.7216,260.1625 C486.5016,284.4525 480.44,308.09 474.57,331 " fill="none" id="servRS-backto-cliMkt" style="stroke:#181818;stroke-width:1;"/><polygon fill="#181818" points="494.21,254.35,488.1024,262.0764,492.9697,259.1937,495.8524,264.061,494.21,254.35" style="stroke:#181818;stroke-width:1;"/><text fill="#000000" font-family="sans-serif" font-size="13" lengthAdjust="spacing" textLength="47.252" x="485.96" y="297.0669">Solicita</text></g><!--reverse link servFV to cliMkt--><g id="link_servFV_cliMkt"><path codeLine="56" d="M253.9335,258.9107 C268.0935,275.2207 281.52,288.17 299.96,301 C318.25,313.73 339.31,324.64 360.12,333.74 " fill="none" id="servFV-backto-cliMkt" style="stroke:#181818;stroke-width:1;"/><polygon fill="#181818" points="250,254.38,252.8797,263.7984,253.2779,258.1556,258.9207,258.5538,250,254.38" style="stroke:#181818;stroke-width:1;"/><text fill="#000000" font-family="sans-serif" font-size="13" lengthAdjust="spacing" textLength="47.252" x="300.96" y="297.0669">Solicita</text></g><!--link empMaura to proyExpOnline--><g id="link_empMaura_proyExpOnline"><path codeLine="58" d="M819.62,238.22 C816.39,266.96 812.1792,304.2874 808.9592,332.9774 " fill="none" id="empMaura-to-proyExpOnline" style="stroke:#181818;stroke-width:1;"/><polygon fill="#181818" points="808.29,338.94,813.2688,330.4423,808.8477,333.9712,805.3188,329.55,808.29,338.94" style="stroke:#181818;stroke-width:1;"/><text fill="#000000" font-family="sans-serif" font-size="13" lengthAdjust="spacing" textLength="69.418" x="814.96" y="297.0669">Trabaja en</text></g><!--link servRS to proyExpOnline--><g id="link_servRS_proyExpOnline"><path codeLine="59" d="M591.24,254.14 C642.16,281.38 700.0598,312.3691 744.4798,336.1391 " fill="none" id="servRS-to-proyExpOnline" style="stroke:#181818;stroke-width:1;"/><polygon fill="#181818" points="749.77,338.97,743.722,331.1969,745.3615,336.6109,739.9475,338.2505,749.77,338.97" style="stroke:#181818;stroke-width:1;"/><text fill="#000000" font-family="sans-serif" font-size="13" lengthAdjust="spacing" textLength="48.7183" x="673.96" y="297.0669">Resulta</text></g><!--reverse link netBees to empMaura--><g id="link_netBees_empMaura"><path codeLine="60" d="M474.1809,85.9699 C556.2409,114.3299 661.66,150.76 737.46,176.95 " fill="none" id="netBees-backto-empMaura" style="stroke:#181818;stroke-width:1;"/><polygon fill="#181818" points="468.51,84.01,475.7098,90.7304,473.2357,85.6432,478.3229,83.1692,468.51,84.01" style="stroke:#181818;stroke-width:1;"/><text fill="#000000" font-family="sans-serif" font-size="13" lengthAdjust="spacing" textLength="77.7588" x="591.96" y="127.0669">Pertenece a</text></g><!--link contratoM01 to ingrM01--><g id="link_contratoM01_ingrM01"><path codeLine="62" d="M188.96,400.01 C188.96,425.48 188.96,455.69 188.96,478.63 " fill="none" id="contratoM01-to-ingrM01" style="stroke:#181818;stroke-width:1;"/><polygon fill="#181818" points="188.96,484.63,192.96,475.63,188.96,479.63,184.96,475.63,188.96,484.63" style="stroke:#181818;stroke-width:1;"/><text fill="#000000" font-family="sans-serif" font-size="13" lengthAdjust="spacing" textLength="47.6201" x="189.96" y="451.0669">Genera</text></g><!--link servRS to contratoM01--><g id="link_servRS_contratoM01"><path codeLine="63" d="M435.63,254.11 C410.08,269.85 380.68,287.02 352.96,301 C325.75,314.73 300.6162,325.6901 273.2062,336.7201 " fill="none" id="servRS-to-contratoM01" style="stroke:#181818;stroke-width:1;"/><polygon fill="#181818" points="267.64,338.96,277.4826,339.311,272.2785,337.0934,274.4961,331.8893,267.64,338.96" style="stroke:#181818;stroke-width:1;"/><text fill="#000000" font-family="sans-serif" font-size="13" lengthAdjust="spacing" textLength="72.0522" x="383.96" y="297.0669">Condiciona</text></g><!--link servFV to contratoM01--><g id="link_servFV_contratoM01"><path codeLine="64" d="M194.41,254.04 C190.91,263.74 187.81,274.06 185.96,284 C182.62,302.04 182.6903,316.6362 184.2203,332.9662 " fill="none" id="servFV-to-contratoM01" style="stroke:#181818;stroke-width:1;"/><polygon fill="#181818" points="184.78,338.94,187.923,329.6061,184.3136,333.9618,179.9579,330.3524,184.78,338.94" style="stroke:#181818;stroke-width:1;"/><text fill="#000000" font-family="sans-serif" font-size="13" lengthAdjust="spacing" textLength="72.0522" x="186.96" y="297.0669">Condiciona</text></g><!--link netBees to contratoM01--><g id="link_netBees_contratoM01"><path codeLine="65" d="M221.58,57.64 C152.03,71.07 73.47,99.85 29.96,161 C6,194.68 11.12,217.21 29.96,254 C49.35,291.85 82.4619,317.1219 116.6419,336.0619 " fill="none" id="netBees-to-contratoM01" style="stroke:#181818;stroke-width:1;"/><polygon fill="#181818" points="121.89,338.97,115.9566,331.1091,117.5166,336.5466,112.0791,338.1066,121.89,338.97" style="stroke:#181818;stroke-width:1;"/><text fill="#000000" font-family="sans-serif" font-size="13" lengthAdjust="spacing" textLength="37.5845" x="30.96" y="212.0669">Emite</text></g><!--SRC=[VLJ1Rjf04BtxAqPSUa8o85G5APK2XOe3JGHDxeEPX4tMizRkEcfQzPDwwYVanpgxsCO654vutvjvRsUUlLSx0ieB_mOvvLkoBjc7eqpPJ5EIV8Bh-8FRxJDvuwh7nCXZvg4tpmjB3k4x-IcHwm4wuCD_-9q0iCctbk0QUXK3fgLJJCx1ZDYJxGcftAeCCsKuy6R87hTMOK2SY1WRZkUPSSfvoX74tfBPl4h9-p_k9N-Iniw6xAkIJh2c7RcDoHJgofKJQBqvCHLfqF04a-j8_Psnzwnsk1FIQ9pA-QkuHNV3PI3EdLSvxgJhDGm7WYf-aZ6O4poC2pwFq_IYnKN9JFeXzcqSBXvE71vOuSuLywB7guyzZZ-sA0ux5cTQXTt02kqBUIcS6Lj4YvbMgnT_Oh5BwsojWU2hUb8UzTcwfsWpqeQniqU9bIOn7qKbdYiiBPx9XZDHyEz_cNx5mPJal8bnSGM5fKfa48ZXTD4jhJjhte9XcFyia5t8r2rhoMWKBmGLu71ouk1O05M5mAAJMLNKzrjoPYaFYx6WCQpE4OkBOCe6KnqlCyFUedXf1fSE3eElW5KwY2OUATlZacEGH6MO3iVzTDGNTWqk51-HguYqbPPL7CwKGavgbLnKG__1w12Gvckm9XqtICq7eNxf-_qlzQisWTj7IIgTOHBo1akgIFNlsuKRe-Lg7i_GMDgWIHEDqBgxgWdyiBZ5vp3ff6fyYRKcLshfTMmLj6hB4xWZwud5AeXUUmsXMJsi2NmJZiMsK9ix0TdiBcoB3novnuUSziWwf7ckFFq7]--></g></svg>